<?xml version="1.0" standalone="no"?>
<!DOCTYPE svg PUBLIC "-//W3C//DTD SVG 20010904//EN" "http://www.w3.org/TR/2001/REC-SVG-20010904/DTD/svg10.dtd">
<!-- Created using Krita: https://krita.org -->
<svg xmlns="http://www.w3.org/2000/svg" 
    xmlns:xlink="http://www.w3.org/1999/xlink"
    xmlns:krita="http://krita.org/namespaces/svg/krita"
    xmlns:sodipodi="http://sodipodi.sourceforge.net/DTD/sodipodi-0.dtd"
    width="1117.06pt"
    height="1117.06pt"
    viewBox="0 0 1117.06 1117.06">
<defs/>
<path id="shape0" transform="translate(582.836497427534, 150.140822588478)" fill="none" stroke="#000000" stroke-width="2.72719893884092" stroke-linecap="square" stroke-linejoin="miter" stroke-miterlimit="2" d="M0 0L0 3.88809" sodipodi:nodetypes="cc"/><g id="group0" transform="translate(193.359914326427, 18.9348584845711)" fill="none">
  <path id="shape01" transform="matrix(-1 0 0 1 748.030816641385 32.9063720255438)" fill="#ffffff" fill-rule="evenodd" stroke="#ffffff" stroke-width="5.45439787768184" stroke-linecap="square" stroke-linejoin="bevel" d="M366.126 349.9L30.681 281.174L0 63.5437L21.1358 29.8628L54.8167 25.0902L53.1804 8.1816L79.2251 0L98.7246 222.812L365.172 221.449L366.126 349.9" sodipodi:nodetypes="cccccccccc"/>
  <path id="shape1" transform="translate(17.7252818334379, 32.7089465614867)" fill="#ffffff" fill-rule="evenodd" stroke="#ffffff" stroke-width="5.45439787768184" stroke-linecap="square" stroke-linejoin="bevel" d="M366.126 349.9L30.681 281.174L0 63.5437L21.1358 29.8628L54.8167 25.0902L53.1804 8.1816L79.2251 0L98.7246 222.812L365.172 221.449L366.126 349.9" sodipodi:nodetypes="cccccccccc"/>
  <path id="shape2" transform="matrix(0.999244406282168 0.0388666504061919 -0.0388666504061919 0.999244406282168 9.07889991173897 80.1028324958041)" fill="none" stroke="#000000" stroke-width="21.8175915107273" stroke-linecap="square" stroke-linejoin="miter" stroke-miterlimit="2" d="M39.4037 233.591L0 0" sodipodi:nodetypes="cc"/>
  <path id="shape3" transform="translate(29.8593601185526, 306.611213125879)" fill="#000000" fill-rule="evenodd" stroke="#000000" stroke-width="1.63631936330455" stroke-linecap="square" stroke-linejoin="bevel" d="M355.015 55.5434C205.47 15.7146 95.6325 -2.69404 25.5013 0.317566C18.3776 0.623473 5.06464 -1.40519 1.36554 2.56751C-1.51713 5.66339 1.07919 15.7876 0.956462 21.4534C290.949 4.35005 408.171 340.076 163.518 499.227C146.097 510.56 128.722 523.55 109.635 536.621C87.3141 551.907 58.08 580.828 48.6825 606.574C43.7595 620.061 47.0358 630.444 44.8985 642.402C43.1171 652.369 37.7073 655.485 32.7283 664.663C29.5848 670.458 34.9445 672.585 38.5066 669.163C42.9884 664.858 51.8591 660.256 55.5005 644.618C59.1127 629.105 54.6159 634.728 63.0684 618.574C72.775 600.022 97.2176 585.365 112.703 577.734C144.448 562.091 161.189 563.088 161.316 587.62C161.404 604.662 160.652 612.193 159.066 627.778C158.898 639.864 156.026 656.145 153.748 662.618C150.869 670.796 133.612 677.33 121.021 690.708C107.275 705.314 107.469 710.496 104.045 718.253C100.713 725.799 104.261 730.508 110.726 726.23C113.422 724.445 113.478 717.2 122.658 707.276C135.091 693.833 167.195 683.848 173.247 673.322C182.634 656.998 195.519 620.725 197.383 615.437C205.131 593.458 233.124 556.678 240.609 548.689C251.377 537.196 265.752 533.737 273.029 537.218C279.603 540.362 284.05 550.711 279.117 571.941C273.21 597.365 271.129 598.466 270.063 617.074C268.836 638.49 272.584 641.626 267.131 664.186C263.04 681.112 245.914 701.515 243.541 717.025C241.687 729.141 244.786 757.154 247.904 768.706C252.228 784.726 262.242 780.621 261.131 766.388C260.473 757.949 257.071 728.566 261.268 721.253C268.21 709.155 302.696 668.902 302.516 643.868C302.386 625.632 303.631 613.09 310.971 585.643C319.385 538.733 334.748 514.757 357.06 513.713Z" sodipodi:nodetypes="cssccssssssssscsssssssssssssssssccc"/>
  <path id="shape4" transform="translate(93.6777637269621, -1.77635683940025e-15)" fill="#ffffff" fill-rule="evenodd" stroke="#000000" stroke-width="5.45439787768184" stroke-linecap="square" stroke-linejoin="miter" stroke-miterlimit="2" d="M0 17.1639L20.8631 255.248C226.876 219.505 284.167 345.411 289.236 364.2C289.236 281.611 289.236 199.023 289.236 116.434C262.72 27.5464 176.366 -30.6537 0 17.1639Z" sodipodi:nodetypes="ccccc"/>
  <path id="shape5" transform="translate(39.2701389800983, 32.0271480120174)" fill="none" stroke="#000000" stroke-width="5.45439787768184" stroke-linecap="square" stroke-linejoin="miter" stroke-miterlimit="2" d="M52.9077 0L28.5674 7.87479C39.2717 86.4181 49.9759 164.655 60.6802 243.198C189.04 213.184 273.285 262.557 345.195 331.355C255.079 288.327 160.293 250.247 34.7718 255.811L0 27.9538" sodipodi:nodetypes="cccccc"/>
  <path id="shape6" transform="translate(39.2701389800984, 56.7082941320317)" fill="none" stroke="#000000" stroke-width="5.45439787768184" stroke-linecap="square" stroke-linejoin="miter" stroke-miterlimit="2" d="M26.9993 0L0 3.27264" sodipodi:nodetypes="cc"/>
  <path id="shape7" transform="translate(18.9525214166723, 61.412716485266)" fill="none" stroke="#000000" stroke-width="5.45439787768184" stroke-linecap="square" stroke-linejoin="miter" stroke-miterlimit="2" d="M18.2041 0L0 30.3401" sodipodi:nodetypes="cc"/>
  <path id="shape8" transform="translate(9.95276493474435, 68.4352537277277)" fill="#000000" fill-rule="evenodd" stroke="#000000" stroke-width="5.45439787768184" stroke-linecap="square" stroke-linejoin="miter" stroke-miterlimit="2" d="M21.988 0L0 3.27264L4.49988 20.7608Z" sodipodi:nodetypes="cccc"/>
  <path id="shape9" transform="translate(342.53463989091, 346.200441359374)" fill="#000000" fill-rule="evenodd" stroke="#000000" stroke-width="5.45439787768184" stroke-linecap="square" stroke-linejoin="miter" stroke-miterlimit="2" d="M39.2717 0L0 24.5448L39.2717 30.4765Z" sodipodi:nodetypes="cccc"/>
  <path id="shape02" transform="matrix(-0.999244406282168 0.0388666504061919 0.0388666504061919 0.999244406282168 756.935109010435 80.2096305280281)" fill="none" stroke="#000000" stroke-width="21.8175915107273" stroke-linecap="square" stroke-linejoin="miter" stroke-miterlimit="2" d="M39.4037 233.591L0 0" sodipodi:nodetypes="cc"/>
  <path id="shape11" transform="matrix(-1 0 0 1 736.154648773061 306.718011773262)" fill="#000000" fill-rule="evenodd" stroke="#000000" stroke-width="1.63631936330455" stroke-linecap="square" stroke-linejoin="bevel" d="M355.015 55.5434C205.47 15.7146 95.6325 -2.69404 25.5013 0.317565C18.3776 0.623472 5.06464 -1.40519 1.36554 2.56751C-1.51713 5.66339 1.07919 15.7876 0.956462 21.4534C290.949 4.35005 408.171 340.076 163.518 499.227C146.097 510.56 128.722 523.55 109.635 536.621C87.3141 551.907 58.08 580.828 48.6825 606.574C43.7595 620.061 47.0358 630.444 44.8985 642.402C43.1171 652.369 37.7073 655.485 32.7283 664.663C29.5848 670.458 34.9445 672.585 38.5066 669.163C42.9884 664.858 51.8591 660.256 55.5005 644.618C59.1127 629.105 54.6159 634.728 63.0684 618.574C72.775 600.022 97.2176 585.365 112.703 577.734C144.448 562.091 161.189 563.088 161.316 587.62C161.404 604.662 160.652 612.193 159.066 627.778C158.898 639.864 156.026 656.145 153.748 662.618C150.869 670.796 133.612 677.33 121.021 690.708C107.275 705.314 107.469 710.496 104.045 718.253C100.713 725.799 104.261 730.508 110.726 726.23C113.422 724.445 113.478 717.2 122.658 707.276C135.091 693.833 167.195 683.848 173.247 673.322C182.634 656.998 195.519 620.725 197.383 615.437C205.131 593.458 233.124 556.678 240.609 548.689C251.377 537.196 265.752 533.738 273.029 537.218C279.603 540.362 284.05 550.711 279.117 571.941C273.21 597.365 271.129 598.466 270.063 617.074C268.836 638.49 272.584 641.626 267.131 664.186C263.04 681.112 245.914 701.515 243.541 717.025C241.687 729.141 244.786 757.154 247.904 768.706C252.228 784.727 262.242 780.621 261.131 766.388C260.473 757.949 257.071 728.566 261.268 721.252C268.21 709.155 302.696 668.901 302.516 643.868C302.386 625.631 303.631 613.09 310.971 585.643C319.385 538.733 334.748 514.757 357.06 513.713Z" sodipodi:nodetypes="cssccssssssssscsssssssssssssssssccc"/>
  <path id="shape21" transform="matrix(-1 0 0 1 672.336245195211 0.106776230318841)" fill="#ffffff" stroke="#000000" stroke-width="5.45439787768184" stroke-linecap="square" stroke-linejoin="miter" stroke-miterlimit="2" d="M0 17.1639L20.8631 255.248C226.876 219.505 284.167 345.411 289.236 364.2C289.236 281.611 289.236 199.023 289.236 116.434C262.72 27.5464 176.366 -30.6537 0 17.1639Z" sodipodi:nodetypes="ccccc"/>
  <path id="shape31" transform="matrix(-1 0 0 1 726.743869942075 32.1339460442416)" fill="none" stroke="#000000" stroke-width="5.45439787768184" stroke-linecap="square" stroke-linejoin="miter" stroke-miterlimit="2" d="M52.9077 0L28.5674 7.87479C39.2717 86.4181 49.9759 164.655 60.6802 243.198C189.04 213.184 273.285 262.557 345.195 331.355C255.079 288.327 160.293 250.247 34.7718 255.811L0 27.9538" sodipodi:nodetypes="cccccc"/>
  <path id="shape41" transform="matrix(-1 0 0 1 726.743869942075 56.8150921642558)" fill="none" stroke="#000000" stroke-width="5.45439787768184" stroke-linecap="square" stroke-linejoin="miter" stroke-miterlimit="2" d="M26.9993 0L0 3.27264" sodipodi:nodetypes="cc"/>
  <path id="shape51" transform="matrix(-1 0 0 1 747.061487505501 61.5195145174902)" fill="none" stroke="#000000" stroke-width="5.45439787768184" stroke-linecap="square" stroke-linejoin="miter" stroke-miterlimit="2" d="M18.2041 0L0 30.3401" sodipodi:nodetypes="cc"/>
  <path id="shape61" transform="matrix(-1 0 0 1 756.061243987429 68.5420517599518)" fill="#000000" fill-rule="evenodd" stroke="#000000" stroke-width="5.45439787768184" stroke-linecap="square" stroke-linejoin="miter" stroke-miterlimit="2" d="M21.988 0L0 3.27264L4.49988 20.7608Z" sodipodi:nodetypes="cccc"/>
  <path id="shape71" transform="matrix(-1 0 0 1 423.479369031263 346.307239391598)" fill="#000000" fill-rule="evenodd" stroke="#000000" stroke-width="5.45439787768184" stroke-linecap="square" stroke-linejoin="miter" stroke-miterlimit="2" d="M39.2717 0L0 24.5448L39.2717 30.4765Z" sodipodi:nodetypes="cccc"/>
 </g>
</svg>
